<svg width="428" height="428" viewBox="0 0 428 428" fill="none" xmlns="http://www.w3.org/2000/svg">
<rect width="428" height="428" fill="url(#paint0_linear_183_530)"/>
<mask id="mask0_183_530" style="mask-type:alpha" maskUnits="userSpaceOnUse" x="0" y="0" width="428" height="428">
<rect width="428" height="428" fill="url(#paint1_linear_183_530)"/>
</mask>
<g mask="url(#mask0_183_530)">
<path d="M241.67 208.265L246.719 208.164V203.584H267.663V208.265H278.7V227.294H256.07H241.67V208.265Z" fill="white"/>
<path d="M56.0322 322.106H64.0106V310.628H56.0322V322.106ZM83.3351 310.628H75.3624V322.106H83.3351V310.628ZM35.0265 322.106V310.628H27.0426V322.106H35.0265ZM44.6917 322.106V310.628H36.7078V322.106H44.6917ZM46.3728 310.628V322.106H54.3511V310.628H46.3728ZM-4.24658 431.075V307.168H19.8402H84.1672V431.075H44.6916V324.351H36.7077V431.075H-4.24658ZM6.0426 322.106V310.628H-1.94138V322.106H6.0426ZM15.7076 322.106V310.628H7.72374V322.106H15.7076ZM17.3888 310.628V322.106H25.3616V310.628H17.3888ZM73.6756 322.106V310.628H65.6973V322.106H73.6756Z" fill="white"/>
<path d="M178.648 144.635V139.582H179.958V135.841H181.639L184.63 128.166H186.317H189.493L192.485 135.841H194.171V139.582H195.481V141.366V144.635H197.348V153.429H200.716V166.314V272.829H207.637V431.075H167.802V407.443V272.829V195.161H171.541V166.314H173.413V153.429H176.781V144.635H178.648Z" fill="#08B74F"/>
<path d="M223.532 431.075H207.637V272.829H200.716V166.314V153.429H197.348V144.635H195.481V141.366H229.987V180.943V227.294H223.532V280.931V431.075Z" fill="#7EFF5F"/>
<path d="M223.532 431.896V431.075V280.931V227.294H229.987H241.67H256.07V435.39L223.532 431.896Z" fill="white"/>
<path d="M66.8163 251.186H68.9904V256.642V256.992H69.3408H76.234H84.2329V306.817H84.1673H20.1907V296.198H20.2301V295.847V256.621H29.4154H29.7658V256.27V251.186H42.6339H45.8725H46.0886L46.1856 250.992L52.1497 239.117H54.2588L60.2228 250.992L60.3198 251.186H60.536H66.8163Z" fill="white" stroke="white" stroke-width="0.700815"/>
<path d="M303.254 346.161H303.399L303.501 346.058L307.617 341.94L307.72 341.837V341.692V265.965V229.141H309.742H309.769L309.797 229.137L318.865 227.704V345.811V435.04H300.866V346.161H303.254Z" fill="white" stroke="white" stroke-width="0.700815"/>
<path d="M152.244 286.417H120.707V430.785H152.244V286.417Z" fill="#0357D4"/>
<path d="M339.768 306.489H347.911V435.04H339.768V306.489Z" fill="white" stroke="white" stroke-width="0.700815"/>
<path d="M319.161 226.948L310.092 228.381V215.913H346.292V226.944H319.216H319.188L319.161 226.948Z" fill="white" stroke="white" stroke-width="0.700815"/>
<path d="M75.8834 188.989V256.291H69.6911V250.835V193.458H70.6563H71.0067V193.107V182.413H71.9552H72.3056V182.062V173.804H72.9896H73.3401V173.454V169.41H75.6098H75.8485L75.9359 169.188L83.7005 149.445L83.7248 149.383V149.316V142.178H84.5832H84.9336V141.827V132.073H85.7077H86.0581V131.722V122.716H86.8266H87.1509V131.722V132.073H87.5013H87.6756H88.5341V141.827V142.178H88.8845H89.8666V149.316V149.383L89.8909 149.445L95.4626 163.612L95.4628 163.612L96.4868 166.228L75.9859 186.749L75.8834 186.852V186.997V188.989Z" fill="#46B4FF" stroke="#46B4FF" stroke-width="0.700815"/>
<path d="M156.579 261.599H161.82V272.829H167.802V407.443V431.075H152.256V289.169H121.984V431.075H84.1672V307.168H84.5833V256.642V256.271V188.111H87.5013H147.943V241.76H156.579V261.599Z" fill="#0357D4"/>
<path d="M84.2329 256.292H76.5843V189.304L84.2329 188.5V256.271V256.292Z" fill="#0357D4" stroke="white" stroke-width="0.700815"/>
<path d="M246.719 208.164L241.67 208.265V227.294H229.987V180.943H246.719V203.584V208.164Z" fill="white"/>
<path d="M427.741 293.411V283.025H435.5V278.529H441.679V273.578H444.384V435.39H420.736V417.172V304.141H424.188V293.411H427.741Z" fill="white"/>
<path d="M319.216 345.811V227.294H346.642H349.887V230.028H355.616V284.679V286.547H348.262V306.138H339.418V435.39H319.216V345.811Z" fill="white"/>
<path d="M303.108 345.46H300.866V263.502L307.019 266.194V341.547L303.108 345.46Z" fill="white" stroke="white" stroke-width="0.700815"/>
<path d="M127.245 166.314V166.459L127.348 166.562L146.593 185.821L146.696 185.924H146.841H148.689V187.761H147.943H87.5013H85.2742L100.828 166.521L100.896 166.428V166.314V163.018H127.245V166.314Z" fill="#0357D4" stroke="white" stroke-width="0.700815"/>
<path d="M278.7 227.294H300.515V262.966V345.811V435.39H256.069V227.294H278.7Z" fill="white"/>
<path d="M76.2339 188.989V186.997L96.8966 166.314L100.546 162.668V166.314L84.5833 188.111L76.2339 188.989Z" fill="#0357D4"/>
<path d="M-11.4096 303.076H-13.1452V296.198H7.72375H19.0868H19.4898V306.817H-4.24657H-4.59698V307.168V430.724H-11.0592V303.426V303.076H-11.4096Z" fill="white" stroke="white" stroke-width="0.700815"/>
<path d="M19.8402 295.847H19.0868H7.72375V295.375V243.448H12.486L19.8796 250.835V256.271V295.847H19.8402Z" fill="white"/>
<path d="M348.262 306.138V286.547H355.616L363.167 279.001L368.896 284.746L371.022 286.862H396.014V275.822H401.001V261.036H403.058V275.822H413.432V283.593H416.243V295.195H416.71H420.736V304.141V417.171V435.39H348.262V306.138Z" fill="white"/>
<path d="M7.72375 243.448H12.486" stroke="#1A1A1A" stroke-width="1.40163" stroke-miterlimit="10" stroke-linecap="round"/>
<path d="M12.4861 243.448L19.8797 250.835" stroke="#1A1A1A" stroke-width="1.40163" stroke-miterlimit="10" stroke-linecap="round"/>
<path d="M19.8796 250.835V256.27" stroke="#1A1A1A" stroke-width="1.40163" stroke-miterlimit="10" stroke-linecap="round"/>
<path d="M7.72375 243.448V295.375" stroke="#1A1A1A" stroke-width="1.40163" stroke-miterlimit="10" stroke-linecap="square"/>
<path d="M-13.4956 295.847H7.72376H19.0868" stroke="#1A1A1A" stroke-width="1.40163" stroke-miterlimit="10" stroke-linecap="square"/>
<path d="M19.8403 295.847V307.168" stroke="#1A1A1A" stroke-width="1.40163" stroke-miterlimit="10" stroke-linecap="square"/>
<path d="M19.8796 256.271V295.847" stroke="#1A1A1A" stroke-width="1.40163" stroke-miterlimit="10" stroke-linecap="square"/>
<path d="M19.8402 307.168H-4.24658" stroke="#1A1A1A" stroke-width="1.40163" stroke-miterlimit="10" stroke-linecap="square"/>
<path d="M19.8403 307.168H84.1673" stroke="#1A1A1A" stroke-width="1.40163" stroke-miterlimit="10" stroke-linecap="square"/>
<path d="M19.8796 256.271H29.4154" stroke="#1A1A1A" stroke-width="1.40163" stroke-miterlimit="10" stroke-linecap="square"/>
<path d="M29.4154 256.27V250.835" stroke="#1A1A1A" stroke-width="1.40163" stroke-miterlimit="10" stroke-linecap="square"/>
<path d="M42.6339 250.835H45.8724" stroke="#1A1A1A" stroke-width="1.40163" stroke-miterlimit="10" stroke-linecap="round"/>
<path d="M29.4154 250.835H42.6339" stroke="#1A1A1A" stroke-width="1.40163" stroke-miterlimit="10" stroke-linecap="square"/>
<path d="M45.8724 250.835L51.9335 238.766" stroke="#1A1A1A" stroke-width="1.40163" stroke-miterlimit="10" stroke-linecap="round"/>
<path d="M54.4749 238.766L60.5359 250.835" stroke="#1A1A1A" stroke-width="1.40163" stroke-miterlimit="10" stroke-linecap="round"/>
<path d="M51.9333 238.766H54.4747" stroke="#1A1A1A" stroke-width="1.40163" stroke-miterlimit="10" stroke-linecap="round"/>
<path d="M66.8162 250.835H69.3407" stroke="#1A1A1A" stroke-width="1.40163" stroke-miterlimit="10" stroke-linecap="square"/>
<path d="M60.5358 250.835H66.8161" stroke="#1A1A1A" stroke-width="1.40163" stroke-miterlimit="10" stroke-linecap="round"/>
<path d="M69.3407 250.835V256.642" stroke="#1A1A1A" stroke-width="1.40163" stroke-miterlimit="10" stroke-linecap="square"/>
<path d="M69.3407 256.642H76.2338H84.5832" stroke="#1A1A1A" stroke-width="1.40163" stroke-miterlimit="10"/>
<path d="M84.5833 256.642V307.168" stroke="#1A1A1A" stroke-width="1.40163" stroke-miterlimit="10" stroke-linecap="square"/>
<path d="M69.3407 250.835V193.107" stroke="#1A1A1A" stroke-width="1.40163" stroke-miterlimit="10" stroke-linecap="square"/>
<path d="M69.3407 193.107H70.6563" stroke="#1A1A1A" stroke-width="1.40163" stroke-miterlimit="10" stroke-linecap="square"/>
<path d="M70.6564 193.107V182.062" stroke="#1A1A1A" stroke-width="1.40163" stroke-miterlimit="10" stroke-linecap="square"/>
<path d="M70.6564 182.062H71.9552" stroke="#1A1A1A" stroke-width="1.40163" stroke-miterlimit="10" stroke-linecap="square"/>
<path d="M71.9552 182.062V173.454" stroke="#1A1A1A" stroke-width="1.40163" stroke-miterlimit="10" stroke-linecap="square"/>
<path d="M71.9552 173.454H72.9897" stroke="#1A1A1A" stroke-width="1.40163" stroke-miterlimit="10" stroke-linecap="square"/>
<path d="M72.9896 173.454V169.06" stroke="#1A1A1A" stroke-width="1.40163" stroke-miterlimit="10" stroke-linecap="square"/>
<path d="M72.9896 169.06H75.6098" stroke="#1A1A1A" stroke-width="1.40163" stroke-miterlimit="10" stroke-linecap="square"/>
<path d="M75.6099 169.06L83.3745 149.316" stroke="#1A1A1A" stroke-width="1.40163" stroke-miterlimit="10" stroke-linecap="round"/>
<path d="M95.7889 163.484L96.8966 166.314" stroke="#1A1A1A" stroke-width="1.40163" stroke-miterlimit="10" stroke-linecap="round"/>
<path d="M90.217 149.316L95.7889 163.484" stroke="#1A1A1A" stroke-width="1.40163" stroke-miterlimit="10" stroke-linecap="round"/>
<path d="M83.3744 149.316V141.827" stroke="#1A1A1A" stroke-width="0.700815" stroke-miterlimit="10" stroke-linecap="round"/>
<path d="M90.217 149.316V141.827" stroke="#1A1A1A" stroke-width="0.700815" stroke-miterlimit="10" stroke-linecap="round"/>
<path d="M83.3744 141.827H84.5832" stroke="#1A1A1A" stroke-width="0.700815" stroke-miterlimit="10" stroke-linecap="square"/>
<path d="M90.2171 141.827H88.8846" stroke="#1A1A1A" stroke-width="0.700815" stroke-miterlimit="10" stroke-linecap="square"/>
<path d="M84.5833 141.827V131.722" stroke="#1A1A1A" stroke-width="0.700815" stroke-miterlimit="10" stroke-linecap="square"/>
<path d="M84.5833 131.722H85.7077" stroke="#1A1A1A" stroke-width="0.700815" stroke-miterlimit="10" stroke-linecap="square"/>
<path d="M85.7079 131.722V122.365" stroke="#1A1A1A" stroke-width="0.700815" stroke-miterlimit="10" stroke-linecap="square"/>
<path d="M85.7079 122.365H86.8268" stroke="#1A1A1A" stroke-width="0.700815" stroke-miterlimit="10" stroke-linecap="square"/>
<path d="M87.5013 122.365V131.722" stroke="#1A1A1A" stroke-width="0.700815" stroke-miterlimit="10" stroke-linecap="square"/>
<path d="M87.6757 131.722H88.8846H89.2612" stroke="#1A1A1A" stroke-width="0.700815" stroke-miterlimit="10"/>
<path d="M88.8846 131.722V141.827" stroke="#1A1A1A" stroke-width="0.700815" stroke-miterlimit="10" stroke-linecap="square"/>
<path d="M96.8966 166.314L100.546 162.668" stroke="#1A1A1A" stroke-width="1.40163" stroke-miterlimit="10" stroke-linecap="round"/>
<path d="M100.546 162.668H127.595" stroke="#1A1A1A" stroke-width="1.40163" stroke-miterlimit="10" stroke-linecap="round"/>
<path d="M127.595 162.668V166.314" stroke="#1A1A1A" stroke-width="1.40163" stroke-miterlimit="10" stroke-linecap="round"/>
<path d="M127.595 166.314L146.841 185.573" stroke="#1A1A1A" stroke-width="1.40163" stroke-miterlimit="10" stroke-linecap="round"/>
<path d="M146.841 185.573H149.04" stroke="#1A1A1A" stroke-width="1.40163" stroke-miterlimit="10" stroke-linecap="round"/>
<path d="M149.04 185.573V188.111" stroke="#1A1A1A" stroke-width="1.40163" stroke-miterlimit="10" stroke-linecap="round"/>
<path d="M149.04 188.111H147.943H87.5013" stroke="#1A1A1A" stroke-width="1.40163" stroke-miterlimit="10" stroke-linecap="round"/>
<path d="M100.546 162.668V166.314" stroke="#1A1A1A" stroke-width="1.40163" stroke-miterlimit="10" stroke-linecap="round"/>
<path d="M100.546 166.314L84.5833 188.111" stroke="#1A1A1A" stroke-width="1.40163" stroke-miterlimit="10" stroke-linecap="round"/>
<path d="M84.5833 188.111H87.5013" stroke="#1A1A1A" stroke-width="1.40163" stroke-miterlimit="10" stroke-linecap="round"/>
<path d="M96.8966 166.314L76.2339 186.997" stroke="#1A1A1A" stroke-width="1.40163" stroke-miterlimit="10" stroke-linecap="round"/>
<path d="M76.2339 186.997V188.989V256.642" stroke="#1A1A1A" stroke-width="1.40163" stroke-miterlimit="10" stroke-linecap="round"/>
<path d="M84.5833 188.111L76.2339 188.989" stroke="#1A1A1A" stroke-width="1.40163" stroke-miterlimit="10" stroke-linecap="round"/>
<path d="M84.5833 188.111V256.271" stroke="#1A1A1A" stroke-width="1.40163" stroke-miterlimit="10" stroke-linecap="round"/>
<path d="M147.943 187.582V188.111V241.76" stroke="#1A1A1A" stroke-width="1.40163" stroke-miterlimit="10" stroke-linecap="square"/>
<path d="M147.943 241.76H156.579" stroke="#1A1A1A" stroke-width="1.40163" stroke-miterlimit="10" stroke-linecap="square"/>
<path d="M156.579 241.76V261.599" stroke="#1A1A1A" stroke-width="1.40163" stroke-miterlimit="10" stroke-linecap="square"/>
<path d="M156.579 261.599H161.82" stroke="#1A1A1A" stroke-width="1.40163" stroke-miterlimit="10" stroke-linecap="square"/>
<path d="M161.82 261.599V272.829" stroke="#1A1A1A" stroke-width="1.40163" stroke-miterlimit="10" stroke-linecap="square"/>
<path d="M161.82 272.829H167.802" stroke="#1A1A1A" stroke-width="1.40163" stroke-miterlimit="10" stroke-linecap="square"/>
<path d="M167.802 272.829V195.161" stroke="#1A1A1A" stroke-width="1.40163" stroke-miterlimit="10" stroke-linecap="square"/>
<path d="M167.802 195.161H171.541" stroke="#1A1A1A" stroke-width="1.40163" stroke-miterlimit="10" stroke-linecap="square"/>
<path d="M171.541 195.161V166.314" stroke="#1A1A1A" stroke-width="1.40163" stroke-miterlimit="10" stroke-linecap="square"/>
<path d="M171.541 166.314H173.413" stroke="#1A1A1A" stroke-width="1.40163" stroke-miterlimit="10" stroke-linecap="square"/>
<path d="M173.413 166.314V153.429" stroke="#1A1A1A" stroke-width="1.40163" stroke-miterlimit="10" stroke-linecap="square"/>
<path d="M173.413 153.429H176.781" stroke="#1A1A1A" stroke-width="0.835511" stroke-miterlimit="10" stroke-linecap="square"/>
<path d="M176.781 153.429V144.635" stroke="#1A1A1A" stroke-width="0.835511" stroke-miterlimit="10" stroke-linecap="square"/>
<path d="M176.781 144.635H178.648" stroke="#08B74F" stroke-width="0.835511" stroke-miterlimit="10" stroke-linecap="square"/>
<path d="M178.648 144.635V139.582" stroke="#08B74F" stroke-width="0.835511" stroke-miterlimit="10" stroke-linecap="square"/>
<path d="M178.648 139.582H179.958" stroke="#08B74F" stroke-width="0.835511" stroke-miterlimit="10" stroke-linecap="square"/>
<path d="M179.958 139.582V135.841" stroke="#08B74F" stroke-width="0.835511" stroke-miterlimit="10" stroke-linecap="square"/>
<path d="M179.958 135.841H181.639" stroke="#08B74F" stroke-width="0.835511" stroke-miterlimit="10" stroke-linecap="round"/>
<path d="M181.639 135.841L184.63 128.166" stroke="#08B74F" stroke-width="0.835511" stroke-miterlimit="10" stroke-linecap="round"/>
<path d="M189.493 128.166L192.485 135.841H194.171V139.582H195.481V141.366V144.635H197.348V153.429H200.716V166.314" stroke="#1A1A1A" stroke-width="1.40163" stroke-miterlimit="10" stroke-linecap="round"/>
<path d="M184.63 128.166H186.317H189.493" stroke="#08B74F" stroke-width="0.835511" stroke-miterlimit="10" stroke-linecap="square"/>
<path d="M186.317 128.166V122.18" stroke="#08B74F" stroke-width="0.835511" stroke-miterlimit="10" stroke-linecap="square"/>
<path d="M186.317 122.18H188.093" stroke="#08B74F" stroke-width="0.835511" stroke-miterlimit="10" stroke-linecap="square"/>
<path d="M188.093 122.18V127.604" stroke="#08B74F" stroke-width="0.835511" stroke-miterlimit="10" stroke-linecap="square"/>
<path d="M187.205 121.285V100" stroke="#08B74F" stroke-width="0.835511" stroke-miterlimit="10" stroke-linecap="square"/>
<path d="M195.481 141.366H229.987" stroke="#7EFF5F" stroke-width="0.835511" stroke-miterlimit="10" stroke-linecap="square"/>
<path d="M200.716 166.314V272.829" stroke="#1A1A1A" stroke-width="1.40163" stroke-miterlimit="10" stroke-linecap="square"/>
<path d="M229.987 141.366V180.943V227.294" stroke="#1A1A1A" stroke-width="1.40163" stroke-miterlimit="10" stroke-linecap="square"/>
<path d="M229.987 180.943H246.719" stroke="#1A1A1A" stroke-width="1.40163" stroke-miterlimit="10" stroke-linecap="square"/>
<path d="M246.719 180.943V203.584" stroke="#1A1A1A" stroke-width="1.40163" stroke-miterlimit="10" stroke-linecap="square"/>
<path d="M241.67 208.265L246.719 208.164" stroke="#1A1A1A" stroke-width="1.40163" stroke-miterlimit="10" stroke-linecap="square"/>
<path d="M246.719 208.164V203.584" stroke="#1A1A1A" stroke-width="1.40163" stroke-miterlimit="10" stroke-linecap="square"/>
<path d="M246.719 203.584H267.663" stroke="#1A1A1A" stroke-width="1.40163" stroke-miterlimit="10" stroke-linecap="square"/>
<path d="M267.663 203.584V208.265" stroke="#1A1A1A" stroke-width="1.40163" stroke-miterlimit="10" stroke-linecap="square"/>
<path d="M267.663 208.265H278.7" stroke="#1A1A1A" stroke-width="1.40163" stroke-miterlimit="10" stroke-linecap="square"/>
<path d="M278.7 208.265V227.294" stroke="#1A1A1A" stroke-width="1.40163" stroke-miterlimit="10" stroke-linecap="square"/>
<path d="M241.67 208.265V227.294" stroke="#1A1A1A" stroke-width="1.40163" stroke-miterlimit="10" stroke-linecap="square"/>
<path d="M223.532 227.294H229.987H241.67H256.07" stroke="#1A1A1A" stroke-width="1.40163" stroke-miterlimit="10" stroke-linecap="square"/>
<path d="M223.532 227.294V280.931" stroke="#1A1A1A" stroke-width="1.40163" stroke-miterlimit="10" stroke-linecap="square"/>
<path d="M256.069 227.294V435.39" stroke="#1A1A1A" stroke-width="1.40163" stroke-miterlimit="10" stroke-linecap="square"/>
<path d="M256.069 227.294H278.7H300.515" stroke="#1A1A1A" stroke-width="1.40163" stroke-miterlimit="10" stroke-linecap="square"/>
<path d="M300.515 227.294V262.966V345.811V435.39" fill="white"/>
<path d="M300.515 227.294V262.966V345.811V435.39" stroke="#1A1A1A" stroke-width="1.40163" stroke-miterlimit="10" stroke-linecap="square"/>
<path d="M223.532 431.896V431.075V280.931" stroke="#1A1A1A" stroke-width="1.40163" stroke-miterlimit="10" stroke-linecap="square"/>
<path d="M300.515 345.811H303.254" stroke="#1A1A1A" stroke-width="1.40163" stroke-miterlimit="10" stroke-linecap="round"/>
<path d="M303.254 345.811L307.369 341.692" stroke="#1A1A1A" stroke-width="1.40163" stroke-miterlimit="10" stroke-linecap="round"/>
<path d="M307.369 341.692V265.965V228.791" stroke="#1A1A1A" stroke-width="1.40163" stroke-miterlimit="10" stroke-linecap="round"/>
<path d="M307.369 228.791H309.742" stroke="#1A1A1A" stroke-width="1.40163" stroke-miterlimit="10" stroke-linecap="round"/>
<path d="M309.742 228.791V215.563" stroke="#1A1A1A" stroke-width="1.40163" stroke-miterlimit="10" stroke-linecap="round"/>
<path d="M309.742 215.563H346.642" stroke="#1A1A1A" stroke-width="1.40163" stroke-miterlimit="10" stroke-linecap="square"/>
<path d="M346.642 215.563V227.294" stroke="#1A1A1A" stroke-width="1.40163" stroke-miterlimit="10" stroke-linecap="square"/>
<path d="M309.742 228.791L319.216 227.294" stroke="#1A1A1A" stroke-width="1.40163" stroke-miterlimit="10" stroke-linecap="round"/>
<path d="M319.216 227.294H346.642" stroke="white" stroke-width="1.40163" stroke-miterlimit="10" stroke-linecap="round"/>
<path d="M319.216 227.294V345.811" stroke="#1A1A1A" stroke-width="1.40163" stroke-miterlimit="10" stroke-linecap="round"/>
<path d="M319.216 345.811V435.39" stroke="#1A1A1A" stroke-width="1.40163" stroke-miterlimit="10" stroke-linecap="square"/>
<path d="M346.642 227.294H349.886" stroke="#1A1A1A" stroke-width="1.40163" stroke-miterlimit="10" stroke-linecap="square"/>
<path d="M349.886 227.294V230.028" stroke="#1A1A1A" stroke-width="1.40163" stroke-miterlimit="10" stroke-linecap="square"/>
<path d="M349.886 230.029H355.616" stroke="#1A1A1A" stroke-width="1.40163" stroke-miterlimit="10" stroke-linecap="square"/>
<path d="M355.616 230.029V284.679" stroke="#1A1A1A" stroke-width="1.40163" stroke-miterlimit="10" stroke-linecap="round"/>
<path d="M84.1672 307.168V431.075V431.086" stroke="#1A1A1A" stroke-width="1.40163" stroke-miterlimit="10" stroke-linecap="round"/>
<path d="M121.984 431.075V289.169" stroke="#0357D4" stroke-width="1.40163" stroke-miterlimit="10" stroke-linecap="round"/>
<path d="M121.984 289.169H152.256" stroke="#0357D4" stroke-width="1.40163" stroke-miterlimit="10" stroke-linecap="round"/>
<path d="M152.256 289.169V431.075" stroke="#0357D4" stroke-width="1.40163" stroke-miterlimit="10" stroke-linecap="round"/>
<path d="M167.802 272.829V407.443" stroke="#1A1A1A" stroke-width="1.40163" stroke-miterlimit="10" stroke-linecap="round"/>
<path d="M167.802 407.443V431.075" stroke="#1A1A1A" stroke-width="1.40163" stroke-miterlimit="10" stroke-linecap="round"/>
<path d="M300.515 262.966L307.369 265.965" stroke="#1A1A1A" stroke-width="1.40163" stroke-miterlimit="10" stroke-linecap="round"/>
<path d="M339.417 435.39V306.138" stroke="#1A1A1A" stroke-width="1.40163" stroke-miterlimit="10" stroke-linecap="square"/>
<path d="M339.417 306.138H348.262" stroke="#1A1A1A" stroke-width="1.40163" stroke-miterlimit="10" stroke-linecap="square"/>
<path d="M348.262 306.138V435.39" stroke="#1A1A1A" stroke-width="1.40163" stroke-miterlimit="10" stroke-linecap="square"/>
<path d="M348.262 306.138V286.547" stroke="#1A1A1A" stroke-width="1.40163" stroke-miterlimit="10" stroke-linecap="square"/>
<path d="M348.262 286.547H355.616" stroke="#1A1A1A" stroke-width="1.40163" stroke-miterlimit="10" stroke-linecap="round"/>
<path d="M355.616 284.679V286.547" stroke="#1A1A1A" stroke-width="1.40163" stroke-miterlimit="10" stroke-linecap="round"/>
<path d="M355.616 286.547L363.167 279.001" stroke="#1A1A1A" stroke-width="1.40163" stroke-miterlimit="10" stroke-linecap="round"/>
<path d="M368.896 284.746L371.021 286.862" stroke="#1A1A1A" stroke-width="1.40163" stroke-miterlimit="10" stroke-linecap="round"/>
<path d="M363.167 279.001L368.896 284.746" stroke="#1A1A1A" stroke-width="1.40163" stroke-miterlimit="10" stroke-linecap="square"/>
<path d="M371.021 286.862H396.013" stroke="#1A1A1A" stroke-width="1.40163" stroke-miterlimit="10" stroke-linecap="round"/>
<path d="M396.013 286.862V275.823" stroke="#1A1A1A" stroke-width="1.40163" stroke-miterlimit="10" stroke-linecap="round"/>
<path d="M396.013 275.823H401.001" stroke="#1A1A1A" stroke-width="1.40163" stroke-miterlimit="10" stroke-linecap="round"/>
<path d="M401.001 275.822V261.036" stroke="#1A1A1A" stroke-width="1.40163" stroke-miterlimit="10" stroke-linecap="round"/>
<path d="M401.001 261.036H403.058" stroke="#1A1A1A" stroke-width="1.40163" stroke-miterlimit="10" stroke-linecap="round"/>
<path d="M403.058 261.036V275.822" stroke="#1A1A1A" stroke-width="1.40163" stroke-miterlimit="10" stroke-linecap="round"/>
<path d="M403.058 275.823H413.432" stroke="#1A1A1A" stroke-width="1.40163" stroke-miterlimit="10" stroke-linecap="round"/>
<path d="M413.432 275.823V283.593" stroke="#1A1A1A" stroke-width="1.40163" stroke-miterlimit="10" stroke-linecap="round"/>
<path d="M413.432 283.593H416.243" stroke="#1A1A1A" stroke-width="1.40163" stroke-miterlimit="10" stroke-linecap="round"/>
<path d="M416.243 283.593V295.195" stroke="#1A1A1A" stroke-width="1.40163" stroke-miterlimit="10" stroke-linecap="round"/>
<path d="M416.71 295.195H420.736" stroke="#1A1A1A" stroke-width="1.40163" stroke-miterlimit="10" stroke-linecap="round"/>
<path d="M420.736 295.195V304.141V417.172" stroke="#1A1A1A" stroke-width="1.40163" stroke-miterlimit="10" stroke-linecap="round"/>
<path d="M420.736 417.172V435.39" stroke="#1A1A1A" stroke-width="1.40163" stroke-miterlimit="10" stroke-linecap="round"/>
<path d="M420.736 304.141H424.188" stroke="#1A1A1A" stroke-width="1.40163" stroke-miterlimit="10" stroke-linecap="round"/>
<path d="M424.188 304.141V293.411" stroke="#1A1A1A" stroke-width="1.40163" stroke-miterlimit="10" stroke-linecap="round"/>
<path d="M424.188 293.411H427.741" stroke="#1A1A1A" stroke-width="1.40163" stroke-miterlimit="10" stroke-linecap="round"/>
<path d="M427.741 293.411V283.024" stroke="#1A1A1A" stroke-width="1.40163" stroke-miterlimit="10" stroke-linecap="round"/>
<path d="M427.741 283.024H435.5" stroke="#1A1A1A" stroke-width="1.40163" stroke-miterlimit="10" stroke-linecap="round"/>
<path d="M200.716 272.829H207.637" stroke="#1A1A1A" stroke-width="1.40163" stroke-miterlimit="10" stroke-linecap="round"/>
<path d="M207.637 272.829V431.075" stroke="#1A1A1A" stroke-width="1.40163" stroke-miterlimit="10" stroke-linecap="round"/>
<path d="M83.5651 307.758H-3.57373V430.439H83.5651V307.758Z" fill="white"/>
<path d="M177.123 145.202V144.151H178.525V139.246H179.576V135.391H181.678L184.481 127.682H186.234" stroke="#1A1A1A" stroke-width="1.40163"/>
<rect y="2" width="428" height="428" fill="url(#paint2_linear_183_530)"/>
</g>
<defs>
<linearGradient id="paint0_linear_183_530" x1="214" y1="428" x2="214" y2="0" gradientUnits="userSpaceOnUse">
<stop stop-color="#D9D9D9"/>
<stop offset="1" stop-color="#FAFAFA"/>
</linearGradient>
<linearGradient id="paint1_linear_183_530" x1="310" y1="428" x2="310" y2="0" gradientUnits="userSpaceOnUse">
<stop stop-color="#D9D9D9"/>
<stop offset="1" stop-color="#FAFAFA"/>
</linearGradient>
<linearGradient id="paint2_linear_183_530" x1="214" y1="430" x2="214" y2="317" gradientUnits="userSpaceOnUse">
<stop stop-color="#FAFAFA"/>
<stop offset="1" stop-color="#FAFAFA" stop-opacity="0"/>
</linearGradient>
</defs>
</svg>
